<mxfile host="app.diagrams.net" agent="Mozilla/5.0 (Windows NT 10.0; Win64; x64) AppleWebKit/537.36 (KHTML, like Gecko) Chrome/130.0.0.0 Safari/537.36" version="24.7.17">
  <diagram id="prtHgNgQTEPvFCAcTncT" name="Page-1">
    <mxGraphModel dx="1195" dy="615" grid="1" gridSize="10" guides="1" tooltips="1" connect="1" arrows="1" fold="1" page="1" pageScale="1" pageWidth="827" pageHeight="1169" math="0" shadow="0">
      <root>
        <mxCell id="0" />
        <mxCell id="1" parent="0" />
        <mxCell id="dNxyNK7c78bLwvsdeMH5-11" value="GVO Boost Program Orgchart" style="swimlane;html=1;startSize=20;horizontal=1;containerType=tree;glass=0;fillColor=#d5e8d4;strokeColor=#82b366;" parent="1" vertex="1">
          <mxGeometry x="59" y="45" width="710" height="540" as="geometry" />
        </mxCell>
        <mxCell id="VbYY6vEISr5oXFv7Z-xg-1" value="&lt;u&gt;&lt;b&gt;Boost:&lt;/b&gt;&lt;/u&gt;&lt;div&gt;Feature Program Hours:&lt;br&gt;225/hr&amp;nbsp;&lt;span style=&quot;background-color: initial;&quot;&gt;+ Implementation Fee&lt;/span&gt;&lt;/div&gt;" style="rounded=0;whiteSpace=wrap;html=1;" vertex="1" parent="dNxyNK7c78bLwvsdeMH5-11">
          <mxGeometry x="280" y="290" width="135" height="80" as="geometry" />
        </mxCell>
        <mxCell id="VbYY6vEISr5oXFv7Z-xg-3" value="&lt;u&gt;&lt;b&gt;Boost Sync&lt;/b&gt;&lt;/u&gt;&lt;div&gt;Fixed Rate: 8,900/Implementation&lt;/div&gt;" style="rounded=0;whiteSpace=wrap;html=1;" vertex="1" parent="dNxyNK7c78bLwvsdeMH5-11">
          <mxGeometry x="31" y="230" width="135" height="80" as="geometry" />
        </mxCell>
        <mxCell id="VbYY6vEISr5oXFv7Z-xg-4" value="&lt;u&gt;&lt;b&gt;Boost Maintenance:&lt;/b&gt;&lt;br&gt;&lt;/u&gt;Feature Program Hours:&lt;br&gt;&lt;div&gt;&lt;span style=&quot;background-color: initial;&quot;&gt;225/hr&lt;/span&gt;&amp;nbsp;&lt;span style=&quot;background-color: initial;&quot;&gt;+ Implementation Fee&lt;/span&gt;&lt;/div&gt;" style="rounded=0;whiteSpace=wrap;html=1;" vertex="1" parent="dNxyNK7c78bLwvsdeMH5-11">
          <mxGeometry x="280" y="400" width="135" height="80" as="geometry" />
        </mxCell>
        <mxCell id="VbYY6vEISr5oXFv7Z-xg-5" value="&lt;u&gt;&lt;b&gt;Boost+:&lt;/b&gt;&lt;/u&gt;&lt;div&gt;Feature Program Hours:&lt;br&gt;210/hr&amp;nbsp;&lt;span style=&quot;background-color: initial;&quot;&gt;+ Implementation Fee&lt;/span&gt;&lt;/div&gt;" style="rounded=0;whiteSpace=wrap;html=1;" vertex="1" parent="dNxyNK7c78bLwvsdeMH5-11">
          <mxGeometry x="280" y="180" width="135" height="80" as="geometry" />
        </mxCell>
        <mxCell id="VbYY6vEISr5oXFv7Z-xg-21" value="&lt;u&gt;&lt;b&gt;Boost Growth:&lt;/b&gt;&lt;/u&gt;&lt;div&gt;Feature Program Hours:&lt;br&gt;210/hr + Implementation Fee&lt;/div&gt;" style="rounded=0;whiteSpace=wrap;html=1;" vertex="1" parent="dNxyNK7c78bLwvsdeMH5-11">
          <mxGeometry x="280" y="80" width="135" height="80" as="geometry" />
        </mxCell>
        <mxCell id="VbYY6vEISr5oXFv7Z-xg-23" value="&lt;u&gt;&lt;b&gt;Feature Program&lt;/b&gt;&lt;/u&gt;" style="text;html=1;align=center;verticalAlign=middle;resizable=0;points=[];autosize=1;strokeColor=none;fillColor=none;" vertex="1" parent="dNxyNK7c78bLwvsdeMH5-11">
          <mxGeometry x="38.5" y="193" width="120" height="30" as="geometry" />
        </mxCell>
      </root>
    </mxGraphModel>
  </diagram>
</mxfile>
